{"title":"World War Z 2013 BRRip XviD AC3 -TODE","uid":8875126,"size":749722595,"categoryP":"video","categoryS":"movies","magnet":"?xt=urn:btih:2f9b6c9fc6e2895608853b129967d3b2b1de011e&amp;dn=World+War+Z+2013+BRRip+XviD+AC3+-TODE&amp;tr=udp%3A%2F%2Ftracker.openbittorrent.com%3A80&amp;tr=udp%3A%2F%2Fopen.demonii.com%3A1337&amp;tr=udp%3A%2F%2Ftracker.coppersurfer.tk%3A6969&amp;tr=udp%3A%2F%2Fexodus.desync.com%3A6969","seeders":1,"leechers":0,"uploader":"xxxlavalxxx","files":-1,"time":1378174702,"description":" &lt;a href=&quot;http://www.imdb.com/title/tt0816711/&quot; rel=&quot;nofollow&quot; target=&quot;_NEW&quot;&gt;http://www.imdb.com/title/tt0816711/&lt;/a&gt;\n\n\n\nUnited Nations employee Gerry Lane traverses the world in a race against time to stop the Zombie pandemic that is toppling armies and governments, and threatening to destroy humanity itself. \n\n\n\nDirector:\n Marc Forster \n\nWriters:\n Matthew Michael Carnahan (screenplay), Drew Goddard (screenplay)\n\nStars:\n Brad Pitt, Mireille Enos, Daniella Kertesz\n\nGenres:\n  Action |  Drama |  Horror |  Sci-Fi |  Thriller \n\n\n\nFormat                                   : AVI\nFormat/Info                              : Audio Video Interleave\nFile size                                : 703 MiB\nDuration                                 : 2h 3mn\nOverall bit rate                         : 798 Kbps\nWriting application                      : Lavf55.14.101\n\nVideo\nID                                       : 0\nFormat                                   : MPEG-4 Visual\nFormat profile                           : Simple@L3\nFormat settings, BVOP                    : No\nFormat settings, QPel                    : No\nFormat settings, GMC                     : No warppoints\nFormat settings, Matrix                  : Default (H.263)\nCodec ID                                 : XVID\nCodec ID/Hint                            : XviD\nDuration                                 : 2h 3mn\nBit rate                                 : 660 Kbps\nWidth                                    : 640 pixels\nHeight                                   : 270 pixels\nDisplay aspect ratio                     : 2.35:1\nOriginal display aspect ratio            : 2.40:1\nFrame rate                               : 23.976 fps\nColor space                              : YUV\nChroma subsampling                       : 4:2:0\nBit depth                                : 8 bits\nScan type                                : Progressive\nCompression mode                         : Lossy\nBits/(Pixel*Frame)                       : 0.159\nStream size                              : 581 MiB (83%)\nWriting library                          : XviD 64\n\nAudio\nID                                       : 1\nFormat                                   : AC-3\nFormat/Info                              : Audio Coding 3\nMode extension                           : CM (complete main)\nFormat settings, Endianness              : Big\nCodec ID                                 : 2000\nDuration                                 : 2h 3mn\nBit rate mode                            : Constant\nBit rate                                 : 128 Kbps\nChannel(s)                               : 2 channels\nChannel positions                        : Front: L R\nSampling rate                            : 48.0 KHz\nBit depth                                : 16 bits\nCompression mode                         : Lossy\nStream size                              : 113 MiB (16%)\nAlignment                                : Aligned on interleaves\nInterleave, duration                     : 32 ms (0.77 video frame)\nInterleave, preload duration             : 32 ms\nTitle                                    : World.War.Z.2013.Unrated.Cut.720p.BluRay.x264.DTS-WiKi\n\n\n\n &lt;a href=&quot;\nhttp://bayimg.com/eaPlIAaEf&quot; rel=&quot;nofollow&quot; target=&quot;_NEW&quot;&gt;\nhttp://bayimg.com/eaPlIAaEf&lt;/a&gt; &lt;a href=&quot;\nhttp://bayimg.com/eAPlJAaeF&quot; rel=&quot;nofollow&quot; target=&quot;_NEW&quot;&gt;\nhttp://bayimg.com/eAPlJAaeF&lt;/a&gt;","torrent":{"xt":"urn:btih:2f9b6c9fc6e2895608853b129967d3b2b1de011e","amp;dn":"World+War+Z+2013+BRRip+XviD+AC3+-TODE","amp;tr":["udp%3A%2F%2Ftracker.openbittorrent.com%3A80","udp%3A%2F%2Fopen.demonii.com%3A1337","udp%3A%2F%2Ftracker.coppersurfer.tk%3A6969","udp%3A%2F%2Fexodus.desync.com%3A6969"],"infoHash":"2f9b6c9fc6e2895608853b129967d3b2b1de011e","infoHashBuffer":{"type":"Buffer","data":[47,155,108,159,198,226,137,86,8,133,59,18,153,103,211,178,177,222,1,30]},"announce":[],"urlList":[]}}